<svg xmlns="http://www.w3.org/2000/svg" width="512" height="512" viewBox="0 0 512 511"><path fill="#ffb739" d="M159 353a76 76 0 0 0-107-1C25 380 7 478 0 512c32-6 131-26 158-54 29-29 30-76 1-105zm0 0" data-original="#FFB739"/><path fill="#fb992d" d="M159 353L0 512c32-6 131-26 158-54 29-29 30-76 1-105zm0 0" data-original="#FB992D"/><path fill="#e8596e" d="M196 195c-50-19-106-7-143 31l-11 10 74 75zm0 0" class="active-path" data-old_color="#DB2E44" data-original="#E8596E"/><path fill="#db2e44" d="M317 317l-116 78 74 75 11-11c37-37 49-93 31-142zm0 0" data-old_color="#213CBD" data-original="#DB2E44"/><path fill="#6b81a1" d="M190 427l73-72c12-11 12-30 0-42l-64-64a30 30 0 0 0-43 0l-71 72 42 43h21v21zm0 0" data-original="#6B81A1"/><path fill="#354a67" d="M263 313l-32-32-83 83v21l42 42 73-72c12-11 12-30 0-42zm0 0" data-original="#354A67"/><path fill="#f2f2fc" d="M447 63L384 2c-41 5-89 22-131 64-47 48-53 92-88 165-4 10-10 19-17 27l106 106c8-7 17-13 27-17 74-35 117-43 164-90 44-44 61-91 66-132zm0 0" data-original="#F2F2FC"/><path fill="#d8d8fc" d="M448 64L201 311l53 53c8-7 17-13 27-17 74-35 117-43 164-90 44-44 61-91 66-132zm0 0" data-original="#D8D8FC"/><path fill="#4cc0ff" d="M392 120a75 75 0 1 0-106 106 75 75 0 0 0 106-106zm0 0" data-original="#4CC0FF"/><path fill="#0087ff" d="M392 226c29-29 29-77 0-106L286 226c29 29 77 29 106 0zm0 0" data-original="#0087FF"/><path fill="#e8596e" d="M510 126a105 105 0 0 1-96-27l-1-1c-27-26-36-62-29-96 62-7 111 12 114 12 0 2 20 50 12 112zm0 0" class="active-path" data-old_color="#DB2E44" data-original="#E8596E"/><path fill="#db2e44" d="M510 126a105 105 0 0 1-96-27h-1l85-85c0 2 20 50 12 112zm0 0" data-old_color="#213CBD" data-original="#DB2E44"/><path fill="#e8596e" d="M148 385l-10-11-11-10 106-106 11 10 10 11-53 53zm0 0" class="active-path" data-old_color="#DB2E44" data-original="#E8596E"/><path fill="#db2e44" d="M148 385l53-53 53-53-10-11-106 106zm0 0" data-old_color="#213CBD" data-original="#DB2E44"/></svg>